<mxfile host="app.diagrams.net" modified="2022-01-05T01:24:40.321Z" agent="5.0 (Macintosh; Intel Mac OS X 10_15_7) AppleWebKit/537.36 (KHTML, like Gecko) Chrome/96.0.4664.110 Safari/537.36" etag="RnZS1hDgs3YiRtS4bG8k" version="16.1.4" type="github">
  <diagram id="PhhgaO7qPSRJpCxBzuqd" name="Page-1">
    <mxGraphModel dx="946" dy="508" grid="1" gridSize="10" guides="1" tooltips="1" connect="1" arrows="1" fold="1" page="1" pageScale="1" pageWidth="827" pageHeight="1169" math="0" shadow="0">
      <root>
        <mxCell id="0" />
        <mxCell id="1" parent="0" />
        <mxCell id="05EPVArUtSKbufkmVEQP-2" value="" style="whiteSpace=wrap;html=1;aspect=fixed;fillColor=none;dashed=1;fontFamily=Helvetica;" parent="1" vertex="1">
          <mxGeometry x="20" y="40" width="360" height="360" as="geometry" />
        </mxCell>
        <mxCell id="05EPVArUtSKbufkmVEQP-4" value="Region" style="rounded=0;whiteSpace=wrap;html=1;dashed=1;fontFamily=Helvetica;fillColor=none;" parent="1" vertex="1">
          <mxGeometry x="20" y="40" width="70" height="30" as="geometry" />
        </mxCell>
        <mxCell id="05EPVArUtSKbufkmVEQP-5" value="" style="whiteSpace=wrap;html=1;aspect=fixed;fontFamily=Helvetica;fillColor=none;" parent="1" vertex="1">
          <mxGeometry x="40" y="80" width="300" height="300" as="geometry" />
        </mxCell>
        <mxCell id="05EPVArUtSKbufkmVEQP-6" value="VPC" style="rounded=0;whiteSpace=wrap;html=1;fontFamily=Helvetica;fillColor=none;" parent="1" vertex="1">
          <mxGeometry x="40" y="80" width="70" height="20" as="geometry" />
        </mxCell>
        <mxCell id="05EPVArUtSKbufkmVEQP-7" value="" style="whiteSpace=wrap;html=1;aspect=fixed;fillColor=none;dashed=1;fontFamily=Helvetica;" parent="1" vertex="1">
          <mxGeometry x="467" y="41" width="360" height="360" as="geometry" />
        </mxCell>
        <mxCell id="05EPVArUtSKbufkmVEQP-9" value="" style="rounded=0;whiteSpace=wrap;html=1;fontFamily=Helvetica;fillColor=none;" parent="1" vertex="1">
          <mxGeometry x="70" y="250" width="230" height="90" as="geometry" />
        </mxCell>
        <mxCell id="05EPVArUtSKbufkmVEQP-10" value="" style="rounded=0;whiteSpace=wrap;html=1;fontFamily=Helvetica;fillColor=none;" parent="1" vertex="1">
          <mxGeometry x="70" y="120" width="230" height="90" as="geometry" />
        </mxCell>
        <mxCell id="05EPVArUtSKbufkmVEQP-11" value="Subnet" style="rounded=0;whiteSpace=wrap;html=1;fontFamily=Helvetica;fillColor=none;" parent="1" vertex="1">
          <mxGeometry x="70" y="120" width="50" height="20" as="geometry" />
        </mxCell>
        <mxCell id="05EPVArUtSKbufkmVEQP-13" value="Subnet" style="rounded=0;whiteSpace=wrap;html=1;fontFamily=Helvetica;fillColor=none;" parent="1" vertex="1">
          <mxGeometry x="70" y="250" width="50" height="20" as="geometry" />
        </mxCell>
        <mxCell id="05EPVArUtSKbufkmVEQP-14" value="" style="whiteSpace=wrap;html=1;aspect=fixed;fontFamily=Helvetica;fillColor=none;" parent="1" vertex="1">
          <mxGeometry x="40" y="80" width="300" height="300" as="geometry" />
        </mxCell>
        <mxCell id="05EPVArUtSKbufkmVEQP-15" value="" style="whiteSpace=wrap;html=1;aspect=fixed;fontFamily=Helvetica;fillColor=none;" parent="1" vertex="1">
          <mxGeometry x="500" y="81" width="300" height="300" as="geometry" />
        </mxCell>
        <mxCell id="05EPVArUtSKbufkmVEQP-16" value="Region" style="rounded=0;whiteSpace=wrap;html=1;dashed=1;fontFamily=Helvetica;fillColor=none;" parent="1" vertex="1">
          <mxGeometry x="467" y="41" width="70" height="30" as="geometry" />
        </mxCell>
        <mxCell id="05EPVArUtSKbufkmVEQP-17" value="VPC" style="rounded=0;whiteSpace=wrap;html=1;fontFamily=Helvetica;fillColor=none;" parent="1" vertex="1">
          <mxGeometry x="500" y="81" width="60" height="19" as="geometry" />
        </mxCell>
        <mxCell id="05EPVArUtSKbufkmVEQP-18" value="" style="rounded=0;whiteSpace=wrap;html=1;fontFamily=Helvetica;fillColor=none;" parent="1" vertex="1">
          <mxGeometry x="520" y="120" width="240" height="90" as="geometry" />
        </mxCell>
        <mxCell id="05EPVArUtSKbufkmVEQP-19" value="Subnet" style="rounded=0;whiteSpace=wrap;html=1;fontFamily=Helvetica;fillColor=none;" parent="1" vertex="1">
          <mxGeometry x="520" y="120" width="60" height="20" as="geometry" />
        </mxCell>
        <mxCell id="05EPVArUtSKbufkmVEQP-20" value="" style="rounded=0;whiteSpace=wrap;html=1;fontFamily=Helvetica;fillColor=none;" parent="1" vertex="1">
          <mxGeometry x="520" y="250" width="240" height="90" as="geometry" />
        </mxCell>
        <mxCell id="05EPVArUtSKbufkmVEQP-21" value="Subnet" style="rounded=0;whiteSpace=wrap;html=1;fontFamily=Helvetica;fillColor=none;" parent="1" vertex="1">
          <mxGeometry x="520" y="250" width="60" height="20" as="geometry" />
        </mxCell>
        <mxCell id="05EPVArUtSKbufkmVEQP-22" value="&lt;span style=&quot;color: rgb(22 , 25 , 31) ; font-family: &amp;#34;amazon ember&amp;#34; , &amp;#34;helvetica neue&amp;#34; , &amp;#34;roboto&amp;#34; , &amp;#34;arial&amp;#34; , sans-serif ; font-size: 14px ; background-color: rgb(241 , 250 , 255)&quot;&gt;10.0.0.0/16&lt;/span&gt;" style="text;html=1;strokeColor=none;fillColor=none;align=center;verticalAlign=middle;whiteSpace=wrap;rounded=0;fontFamily=Helvetica;" parent="1" vertex="1">
          <mxGeometry x="119" y="351" width="130" height="30" as="geometry" />
        </mxCell>
        <mxCell id="05EPVArUtSKbufkmVEQP-24" value="&lt;span style=&quot;color: rgb(22 , 25 , 31) ; font-family: &amp;#34;amazon ember&amp;#34; , &amp;#34;helvetica neue&amp;#34; , &amp;#34;roboto&amp;#34; , &amp;#34;arial&amp;#34; , sans-serif ; font-size: 14px ; background-color: rgb(255 , 255 , 255)&quot;&gt;172.31.0.0/16&lt;/span&gt;" style="text;html=1;strokeColor=none;fillColor=none;align=center;verticalAlign=middle;whiteSpace=wrap;rounded=0;fontFamily=Helvetica;" parent="1" vertex="1">
          <mxGeometry x="560" y="350" width="190" height="30" as="geometry" />
        </mxCell>
        <mxCell id="05EPVArUtSKbufkmVEQP-25" value="&lt;span style=&quot;color: rgb(22 , 25 , 31) ; font-family: &amp;#34;amazon ember&amp;#34; , &amp;#34;helvetica neue&amp;#34; , &amp;#34;roboto&amp;#34; , &amp;#34;arial&amp;#34; , sans-serif ; font-size: 14px ; background-color: rgb(255 , 255 , 255)&quot;&gt;10.0.0.0/24&lt;/span&gt;" style="text;html=1;strokeColor=none;fillColor=none;align=center;verticalAlign=middle;whiteSpace=wrap;rounded=0;fontFamily=Helvetica;" parent="1" vertex="1">
          <mxGeometry x="119" y="180" width="151" height="30" as="geometry" />
        </mxCell>
        <mxCell id="05EPVArUtSKbufkmVEQP-26" value="&lt;span style=&quot;color: rgb(22 , 25 , 31) ; font-family: &amp;#34;amazon ember&amp;#34; , &amp;#34;helvetica neue&amp;#34; , &amp;#34;roboto&amp;#34; , &amp;#34;arial&amp;#34; , sans-serif ; font-size: 14px ; background-color: rgb(255 , 255 , 255)&quot;&gt;172.31.16.0/20&lt;/span&gt;" style="text;html=1;strokeColor=none;fillColor=none;align=center;verticalAlign=middle;whiteSpace=wrap;rounded=0;fontFamily=Helvetica;" parent="1" vertex="1">
          <mxGeometry x="562" y="180" width="160" height="30" as="geometry" />
        </mxCell>
        <mxCell id="05EPVArUtSKbufkmVEQP-27" value="&lt;span style=&quot;color: rgb(22 , 25 , 31) ; font-family: &amp;#34;amazon ember&amp;#34; , &amp;#34;helvetica neue&amp;#34; , &amp;#34;roboto&amp;#34; , &amp;#34;arial&amp;#34; , sans-serif ; font-size: 14px ; background-color: rgb(255 , 255 , 255)&quot;&gt;172.31.32.0/20&lt;/span&gt;" style="text;html=1;strokeColor=none;fillColor=none;align=center;verticalAlign=middle;whiteSpace=wrap;rounded=0;fontFamily=Helvetica;" parent="1" vertex="1">
          <mxGeometry x="579" y="310" width="130" height="30" as="geometry" />
        </mxCell>
        <mxCell id="05EPVArUtSKbufkmVEQP-28" value="Private" style="text;html=1;strokeColor=none;fillColor=none;align=center;verticalAlign=middle;whiteSpace=wrap;rounded=0;fontFamily=Helvetica;" parent="1" vertex="1">
          <mxGeometry x="537" y="10" width="243" height="30" as="geometry" />
        </mxCell>
        <mxCell id="05EPVArUtSKbufkmVEQP-29" value="Public" style="text;html=1;strokeColor=none;fillColor=none;align=center;verticalAlign=middle;whiteSpace=wrap;rounded=0;fontFamily=Helvetica;" parent="1" vertex="1">
          <mxGeometry x="90" y="11" width="210" height="30" as="geometry" />
        </mxCell>
        <mxCell id="XHXrJZq5cTJAChG5WZjP-129" value="&lt;span style=&quot;color: rgb(22 , 25 , 31) ; font-family: &amp;#34;amazon ember&amp;#34; , &amp;#34;helvetica neue&amp;#34; , &amp;#34;roboto&amp;#34; , &amp;#34;arial&amp;#34; , sans-serif ; font-size: 14px ; background-color: rgb(255 , 255 , 255)&quot;&gt;10.0.0.0/24&lt;/span&gt;" style="text;html=1;strokeColor=none;fillColor=none;align=center;verticalAlign=middle;whiteSpace=wrap;rounded=0;fontFamily=Helvetica;" vertex="1" parent="1">
          <mxGeometry x="123" y="658" width="151" height="30" as="geometry" />
        </mxCell>
        <mxCell id="XHXrJZq5cTJAChG5WZjP-130" value="&lt;span style=&quot;color: rgb(22 , 25 , 31) ; font-family: &amp;#34;amazon ember&amp;#34; , &amp;#34;helvetica neue&amp;#34; , &amp;#34;roboto&amp;#34; , &amp;#34;arial&amp;#34; , sans-serif ; font-size: 14px ; background-color: rgb(241 , 250 , 255)&quot;&gt;10.0.0.0/16&lt;/span&gt;" style="text;html=1;strokeColor=none;fillColor=none;align=center;verticalAlign=middle;whiteSpace=wrap;rounded=0;fontFamily=Helvetica;" vertex="1" parent="1">
          <mxGeometry x="133" y="895" width="130" height="30" as="geometry" />
        </mxCell>
        <mxCell id="XHXrJZq5cTJAChG5WZjP-134" value="" style="group" vertex="1" connectable="0" parent="1">
          <mxGeometry x="6" y="420" width="350" height="530" as="geometry" />
        </mxCell>
        <mxCell id="XHXrJZq5cTJAChG5WZjP-126" value="Private subnet" style="points=[[0,0],[0.25,0],[0.5,0],[0.75,0],[1,0],[1,0.25],[1,0.5],[1,0.75],[1,1],[0.75,1],[0.5,1],[0.25,1],[0,1],[0,0.75],[0,0.5],[0,0.25]];outlineConnect=0;gradientColor=none;html=1;whiteSpace=wrap;fontSize=12;fontStyle=0;container=1;pointerEvents=0;collapsible=0;recursiveResize=0;shape=mxgraph.aws4.group;grIcon=mxgraph.aws4.group_security_group;grStroke=0;strokeColor=#147EBA;fillColor=#E6F2F8;verticalAlign=top;align=left;spacingLeft=30;fontColor=#147EBA;dashed=0;rounded=0;sketch=0;" vertex="1" parent="XHXrJZq5cTJAChG5WZjP-134">
          <mxGeometry x="30" y="290" width="290" height="160" as="geometry" />
        </mxCell>
        <mxCell id="XHXrJZq5cTJAChG5WZjP-127" value="Public subnet" style="points=[[0,0],[0.25,0],[0.5,0],[0.75,0],[1,0],[1,0.25],[1,0.5],[1,0.75],[1,1],[0.75,1],[0.5,1],[0.25,1],[0,1],[0,0.75],[0,0.5],[0,0.25]];outlineConnect=0;gradientColor=none;html=1;whiteSpace=wrap;fontSize=12;fontStyle=0;container=1;pointerEvents=0;collapsible=0;recursiveResize=0;shape=mxgraph.aws4.group;grIcon=mxgraph.aws4.group_security_group;grStroke=0;strokeColor=#248814;fillColor=#E9F3E6;verticalAlign=top;align=left;spacingLeft=30;fontColor=#248814;dashed=0;rounded=0;sketch=0;" vertex="1" parent="XHXrJZq5cTJAChG5WZjP-134">
          <mxGeometry x="30" y="100" width="290" height="170" as="geometry" />
        </mxCell>
        <mxCell id="XHXrJZq5cTJAChG5WZjP-92" value="AWS Cloud" style="points=[[0,0],[0.25,0],[0.5,0],[0.75,0],[1,0],[1,0.25],[1,0.5],[1,0.75],[1,1],[0.75,1],[0.5,1],[0.25,1],[0,1],[0,0.75],[0,0.5],[0,0.25]];outlineConnect=0;html=1;whiteSpace=wrap;fontSize=12;fontStyle=0;shape=mxgraph.aws4.group;grIcon=mxgraph.aws4.group_aws_cloud_alt;fillColor=none;verticalAlign=top;align=left;spacingLeft=30;dashed=0;container=0;pointerEvents=0;collapsible=0;recursiveResize=0;" vertex="1" parent="XHXrJZq5cTJAChG5WZjP-134">
          <mxGeometry width="350" height="530" as="geometry" />
        </mxCell>
        <mxCell id="XHXrJZq5cTJAChG5WZjP-122" value="Region" style="points=[[0,0],[0.25,0],[0.5,0],[0.75,0],[1,0],[1,0.25],[1,0.5],[1,0.75],[1,1],[0.75,1],[0.5,1],[0.25,1],[0,1],[0,0.75],[0,0.5],[0,0.25]];outlineConnect=0;html=1;whiteSpace=wrap;fontSize=12;fontStyle=0;container=0;pointerEvents=0;collapsible=0;recursiveResize=0;shape=mxgraph.aws4.group;grIcon=mxgraph.aws4.group_region;fillColor=none;verticalAlign=top;align=left;spacingLeft=30;dashed=1;" vertex="1" parent="XHXrJZq5cTJAChG5WZjP-134">
          <mxGeometry x="7.5" y="40" width="333.3333333333333" height="460" as="geometry" />
        </mxCell>
        <mxCell id="XHXrJZq5cTJAChG5WZjP-125" value="VPC" style="points=[[0,0],[0.25,0],[0.5,0],[0.75,0],[1,0],[1,0.25],[1,0.5],[1,0.75],[1,1],[0.75,1],[0.5,1],[0.25,1],[0,1],[0,0.75],[0,0.5],[0,0.25]];outlineConnect=0;gradientColor=none;html=1;whiteSpace=wrap;fontSize=12;fontStyle=0;container=0;pointerEvents=0;collapsible=0;recursiveResize=0;shape=mxgraph.aws4.group;grIcon=mxgraph.aws4.group_vpc;strokeColor=#248814;fillColor=none;verticalAlign=top;align=left;spacingLeft=30;fontColor=#AAB7B8;dashed=0;rounded=0;sketch=0;" vertex="1" parent="XHXrJZq5cTJAChG5WZjP-134">
          <mxGeometry x="15.833333333333336" y="70" width="316.66666666666663" height="400" as="geometry" />
        </mxCell>
        <mxCell id="XHXrJZq5cTJAChG5WZjP-136" value="&lt;span style=&quot;color: rgb(22 , 25 , 31) ; font-family: &amp;#34;amazon ember&amp;#34; , &amp;#34;helvetica neue&amp;#34; , &amp;#34;roboto&amp;#34; , &amp;#34;arial&amp;#34; , sans-serif ; font-size: 14px ; background-color: rgb(255 , 255 , 255)&quot;&gt;10.0.0.0/24&lt;/span&gt;" style="text;html=1;strokeColor=none;fillColor=none;align=center;verticalAlign=middle;whiteSpace=wrap;rounded=0;fontFamily=Helvetica;" vertex="1" parent="XHXrJZq5cTJAChG5WZjP-134">
          <mxGeometry x="-5.329999999999998" y="245" width="151" height="30" as="geometry" />
        </mxCell>
        <mxCell id="XHXrJZq5cTJAChG5WZjP-139" value="" style="sketch=0;points=[[0,0,0],[0.25,0,0],[0.5,0,0],[0.75,0,0],[1,0,0],[0,1,0],[0.25,1,0],[0.5,1,0],[0.75,1,0],[1,1,0],[0,0.25,0],[0,0.5,0],[0,0.75,0],[1,0.25,0],[1,0.5,0],[1,0.75,0]];outlineConnect=0;fontColor=#232F3E;gradientColor=#4D72F3;gradientDirection=north;fillColor=#3334B9;strokeColor=#ffffff;dashed=0;verticalLabelPosition=bottom;verticalAlign=top;align=center;html=1;fontSize=12;fontStyle=0;aspect=fixed;shape=mxgraph.aws4.resourceIcon;resIcon=mxgraph.aws4.rds;rounded=0;" vertex="1" parent="XHXrJZq5cTJAChG5WZjP-134">
          <mxGeometry x="234" y="310" width="78" height="78" as="geometry" />
        </mxCell>
        <mxCell id="XHXrJZq5cTJAChG5WZjP-140" value="" style="sketch=0;points=[[0,0,0],[0.25,0,0],[0.5,0,0],[0.75,0,0],[1,0,0],[0,1,0],[0.25,1,0],[0.5,1,0],[0.75,1,0],[1,1,0],[0,0.25,0],[0,0.5,0],[0,0.75,0],[1,0.25,0],[1,0.5,0],[1,0.75,0]];outlineConnect=0;fontColor=#232F3E;gradientColor=#F78E04;gradientDirection=north;fillColor=#D05C17;strokeColor=#ffffff;dashed=0;verticalLabelPosition=bottom;verticalAlign=top;align=center;html=1;fontSize=12;fontStyle=0;aspect=fixed;shape=mxgraph.aws4.resourceIcon;resIcon=mxgraph.aws4.ec2;rounded=0;" vertex="1" parent="XHXrJZq5cTJAChG5WZjP-134">
          <mxGeometry x="236" y="158" width="78" height="78" as="geometry" />
        </mxCell>
        <mxCell id="XHXrJZq5cTJAChG5WZjP-135" value="&lt;span style=&quot;color: rgb(22 , 25 , 31) ; font-family: &amp;#34;amazon ember&amp;#34; , &amp;#34;helvetica neue&amp;#34; , &amp;#34;roboto&amp;#34; , &amp;#34;arial&amp;#34; , sans-serif ; font-size: 14px ; background-color: rgb(255 , 255 , 255)&quot;&gt;10.0.0.0/24&lt;/span&gt;" style="text;html=1;strokeColor=none;fillColor=none;align=center;verticalAlign=middle;whiteSpace=wrap;rounded=0;fontFamily=Helvetica;" vertex="1" parent="1">
          <mxGeometry x="119" y="180" width="151" height="30" as="geometry" />
        </mxCell>
        <mxCell id="XHXrJZq5cTJAChG5WZjP-137" value="" style="edgeStyle=orthogonalEdgeStyle;html=1;endArrow=block;elbow=vertical;startArrow=none;endFill=1;strokeColor=#545B64;rounded=0;sketch=0;curved=0;" edge="1" parent="1">
          <mxGeometry width="100" relative="1" as="geometry">
            <mxPoint x="282" y="660" as="sourcePoint" />
            <mxPoint x="282" y="730" as="targetPoint" />
          </mxGeometry>
        </mxCell>
      </root>
    </mxGraphModel>
  </diagram>
</mxfile>
